<svg width="24" xmlns="http://www.w3.org/2000/svg" height="24" fill="none"><g data-testid="svg" style="fill: rgb(0, 0, 0);"><g data-testid="svg-path"><path d="M11 6.75v-2.5c0-.7.242-1.292.725-1.775.483-.483 1.075-.725 1.775-.725H16v2.5c0 .7-.242 1.292-.725 1.775-.483.483-1.075.725-1.775.725H11Zm-5.5 6a3.373 3.373 0 0 1-2.475-1.025A3.373 3.373 0 0 1 2 9.25v-3.5h3.5c.967 0 1.792.342 2.475 1.025A3.373 3.373 0 0 1 9 9.25v3.5H5.5Zm10.5 9c-.65 0-1.271-.1-1.862-.3a6.006 6.006 0 0 1-1.613-.825l-.825.825a.95.95 0 0 1-.7.275.95.95 0 0 1-.7-.275.95.95 0 0 1-.275-.7.95.95 0 0 1 .275-.7l.825-.825a6.015 6.015 0 0 1-.825-1.612c-.2-.592-.3-1.213-.3-1.863 0-1.667.583-3.087 1.75-4.262 1.167-1.175 2.583-1.763 4.25-1.763h6.025v6.025c0 1.667-.587 3.083-1.762 4.25-1.176 1.167-2.596 1.75-4.263 1.75Zm0-2c1.117 0 2.058-.392 2.825-1.175.767-.783 1.15-1.725 1.15-2.825v-4H16c-1.1 0-2.042.388-2.825 1.163-.783.775-1.175 1.72-1.175 2.837 0 .383.046.746.138 1.088.091.341.229.662.412.962l2.75-2.75a.95.95 0 0 1 .7-.275.95.95 0 0 1 .7.275.95.95 0 0 1 .275.7.95.95 0 0 1-.275.7l-2.75 2.75c.3.183.621.321.963.413.341.091.704.137 1.087.137Zm.025-4.025Z" style="fill: rgb(164, 237, 133); fill-opacity: 1;" class="fills"/><g class="strokes"><g class="inner-stroke-shape"><defs><clipPath id="b"><use href="#a"/></clipPath><path d="M11 6.75v-2.5c0-.7.242-1.292.725-1.775.483-.483 1.075-.725 1.775-.725H16v2.5c0 .7-.242 1.292-.725 1.775-.483.483-1.075.725-1.775.725H11Zm-5.5 6a3.373 3.373 0 0 1-2.475-1.025A3.373 3.373 0 0 1 2 9.25v-3.5h3.5c.967 0 1.792.342 2.475 1.025A3.373 3.373 0 0 1 9 9.25v3.5H5.5Zm10.5 9c-.65 0-1.271-.1-1.862-.3a6.006 6.006 0 0 1-1.613-.825l-.825.825a.95.95 0 0 1-.7.275.95.95 0 0 1-.7-.275.95.95 0 0 1-.275-.7.95.95 0 0 1 .275-.7l.825-.825a6.015 6.015 0 0 1-.825-1.612c-.2-.592-.3-1.213-.3-1.863 0-1.667.583-3.087 1.75-4.262 1.167-1.175 2.583-1.763 4.25-1.763h6.025v6.025c0 1.667-.587 3.083-1.762 4.25-1.176 1.167-2.596 1.75-4.263 1.75Zm0-2c1.117 0 2.058-.392 2.825-1.175.767-.783 1.15-1.725 1.15-2.825v-4H16c-1.1 0-2.042.388-2.825 1.163-.783.775-1.175 1.72-1.175 2.837 0 .383.046.746.138 1.088.091.341.229.662.412.962l2.75-2.75a.95.95 0 0 1 .7-.275.95.95 0 0 1 .7.275.95.95 0 0 1 .275.7.95.95 0 0 1-.275.7l-2.75 2.75c.3.183.621.321.963.413.341.091.704.137 1.087.137Zm.025-4.025Z" id="a" style="fill: none; stroke-width: 20; stroke: rgb(25, 135, 84); stroke-opacity: 1;"/></defs><use href="#a" clip-path="url('#b')"/></g></g></g></g></svg>